<?xml version="1.0" encoding="utf-8"?>
<!-- Generator: Adobe Illustrator 24.1.0, SVG Export Plug-In . SVG Version: 6.00 Build 0)  -->
<svg version="1.1" id="Layer_1" xmlns="http://www.w3.org/2000/svg" xmlns:xlink="http://www.w3.org/1999/xlink" x="0px" y="0px"
	 viewBox="0 0 140 32.8" style="enable-background:new 0 0 140 32.8;" xml:space="preserve">
<style type="text/css">
	.st0{fill-rule:evenodd;clip-rule:evenodd;fill:#2074AE;}
	.st1{fill-rule:evenodd;clip-rule:evenodd;fill:#F58220;}
</style>
<g>
	<path class="st0" d="M41,2.2c0.6,0.4,1.4,1.1,1.7,1.7c0,0.1,0.1,0.1,0.1,0.2l6.6,14.5c-0.1,0.8-0.5,1.1-1.3,1.5
		c-0.4,0.1-0.9,0.2-1,0.2c-1,0.1-1.9-0.1-2.6-0.8c-0.1-0.1-0.3-0.3-0.3-0.3c0-0.1-0.1-0.1-0.1-0.2L37.5,4.5c0,0-0.1-0.1-0.1-0.1
		c-0.1-0.1-0.5-0.1-0.5-0.1c-0.4,0-0.9,0.3-0.9,0.3c0,0,0,0,0,0l0,0l0,0l-5.8,8.7c-0.2,0.3-0.2,1-0.1,1.3c0,0.2,0.1,0.4,0.3,0.5
		c0.1,0.2,0.3,0.3,0.5,0.5c0.2,0.1,0.4,0.3,0.7,0.4c0.2,0.1,0.5,0.2,0.7,0.3c0.3,0.1,0.5,0.2,0.8,0.3c0.3,0.1,0.6,0.1,0.9,0.2
		c0.8,0.1,1.7,0.1,2.4-0.1c0,0,0.1,0,0.2,0c1.7-0.7,2.2-1,3.7-2c0.3,0.1,0.6,0.1,0.8,0.3c0.5,0.3,0.6,0.6,0.6,1.1
		c-3.7,3.6-9.9,5.2-14.9,2.2c-0.2-0.1-0.4-0.3-0.6-0.4c-1.4-1.1-1.4-1.8-1-2.8l7.5-11.7c0.1-0.2,0.2-0.3,0.4-0.4
		c0.1-0.1,0.3-0.3,0.5-0.4c0.2-0.1,0.4-0.2,0.6-0.3c0.2-0.1,0.4-0.2,0.7-0.3c0.4-0.2,1.9-0.5,2.3-0.5C38.6,1.2,39.7,1.4,41,2.2z"/>
	<path class="st0" d="M71.4,2c0,0,0.1,0.1,0.1,0.1v16.6c0,0,0,0,0,0.1c0,0,0,0.1,0,0.1c0,0.1-0.1,0.3-0.2,0.4
		c-0.4,0.4-0.8,0.7-1.5,0.7c-0.5,0-1.4,0.1-1.8-0.1c-0.6-0.2-1.3-0.7-1.3-1.2l-0.2-6.2c-0.1-0.1-0.2-0.2-0.2-0.3
		c-1.1-1.5-2.3-2.2-4-3.2c-0.4-0.2-0.8-0.5-1.2-0.6c-0.4-0.2-0.7-0.4-1.1-0.5c-0.2-0.1-0.4-0.2-0.5-0.3c-0.1-0.1-0.3-0.1-0.4-0.2
		c-0.1-0.1-0.3-0.1-0.4-0.2C58.5,7,58.3,7,58.2,6.9c-0.1-0.1-0.3-0.1-0.4-0.2c-0.4-0.1-0.9-0.4-1.3-0.5c-0.1,0-0.2-0.1-0.2-0.1
		C55.8,6,55,6.6,55,6.8c0,0,0,8.1,0,12.2c-0.3,0.5-1.3,0.9-1.8,0.9c-0.3,0-0.7,0-1,0c-0.9,0-1.4-0.7-1.4-0.9V3.1C50.9,3,51,3,51,2.9
		c0.9-1.5,2.8-1.6,4.5-1c0,0,0.1,0,0.1,0c0,0,0,0,0.1,0c0,0,0.1,0,0.1,0c0.2,0.1,0.5,0.2,0.7,0.3c0.5,0.2,1,0.4,1.5,0.6
		c0.9,0.3,1.7,0.7,2.6,1.1c0.3,0.1,0.6,0.3,0.9,0.4c0.2,0.1,0.3,0.1,0.5,0.2c0.1,0.1,0.3,0.1,0.5,0.2c0.3,0.2,0.6,0.3,0.9,0.5
		c0.3,0.2,0.6,0.3,0.9,0.5c0.2,0.1,0.4,0.2,0.6,0.4c0.2,0.1,0.4,0.2,0.6,0.4c0.2,0.1,0.4,0.3,0.6,0.4c0.2,0.1,0.4,0.2,0.6,0.4
		c0.2,0.1,0.5,0,0.6-0.2V2.8c0,0,0-0.1,0-0.1c0-0.2,0.1-0.4,0.3-0.6c0.4-0.3,0.8-0.5,1.4-0.6C70.1,1.3,70.8,1.6,71.4,2z"/>
	<path class="st0" d="M74.9,1.7h15.9c1.2,0.6,1.5,1.7,0.3,2.4c-0.1,0.1-0.6,0-0.8,0c-0.2,0-0.6,0-0.8,0c-0.1,0-0.2,0-0.3,0
		c0,0-2.5,0-2.9,0c-0.3,0-0.4,0-0.6,0.1c-0.1,0.1-0.4,0.3-0.4,0.4c-0.1,0.1-0.1,0.2-0.1,0.3c0,0,0,0,0,0.1v13.6c0,0.4-0.3,0.8-0.7,1
		c-0.4,0.2-0.7,0.3-1.2,0.4c-0.7,0.1-1.1,0-1.8-0.1c-0.5-0.1-1.1-0.3-1.2-0.8l0,0c0,0,0,0,0,0c0,0,0,0,0,0l0-14.2l-0.9-0.7l-4.4,0
		c-0.1,0-0.2,0-0.3,0c-0.5-0.1-1.1-0.5-1.1-1.1c0,0,0-0.1,0-0.1C73.5,2.4,74.1,1.7,74.9,1.7L74.9,1.7z"/>
	<path class="st0" d="M109.5,4c0.5,0.3,1.2,1,1.4,1.5c0.1,0.3,0.2,0.9,0.2,1.2c0,0,0,0,0,0.1c0,2-4.2,3.8-6.2,4.5l0.1,0.5
		c0.2,0.1,0.3,0.2,0.5,0.4c0.2,0.1,0.3,0.2,0.5,0.4c1.9,1.7,3.7,2.8,5.5,4.7c0.3,0.3,0.5,0.6,0.7,0.8c0.4,0.5,0.1,1.1-0.5,1.4
		c-0.3,0.2-0.9,0.4-1.3,0.5c-0.8,0.2-2.4,0.2-3.2-0.2c-0.1,0-0.1-0.1-0.2-0.1c0,0-0.1-0.1-0.1-0.1c-0.1-0.2-0.2-0.3-0.4-0.5
		c-0.4-0.5-0.7-1-1.1-1.4c-0.3-0.3-0.5-0.6-0.8-0.9c-0.3-0.3-0.5-0.6-0.8-0.9c-0.3-0.3-0.6-0.6-0.9-0.9c-0.3-0.3-0.6-0.6-0.9-0.9
		c-0.2-0.1-0.3-0.3-0.5-0.4c-0.2-0.1-0.3-0.3-0.5-0.4c-0.2-0.1-0.3-0.3-0.5-0.4c-0.2-0.1-0.3-0.3-0.5-0.4l0,0l0,0
		c-0.1-0.1-0.3-0.3-0.3-0.4l0,0c0-0.4,0.2-0.6,0.5-0.9c0,0,0,0,0.1-0.1c0,0,0.1-0.1,0.1-0.1c0,0,0,0,0,0c0.8-0.7,2.9-1.5,4-2
		c0.1,0,0.2-0.1,0.3-0.1c0.2-0.1,0.6-0.4,0.7-0.7c0.5-0.7,0.1-1.8-0.4-2.5c-0.2-0.2-0.4-0.3-0.6-0.5c-0.2-0.2-0.5-0.3-0.7-0.5
		c-0.1-0.1-0.3-0.2-0.4-0.2c-0.1-0.1-0.3-0.1-0.4-0.2c-0.1-0.1-0.3-0.1-0.4-0.2c-0.1-0.1-0.3-0.1-0.4-0.1c-0.3-0.1-0.6-0.2-0.9-0.2
		c-0.3,0-0.6-0.1-1-0.1c-0.2,0-0.3,0-0.5,0.1c-0.1,0-0.3,0.1-0.4,0.1C99.2,3.9,99.1,3.9,99,4c-0.1,0.1-0.2,0.1-0.2,0.2
		c-0.1,0.1-0.1,0.2-0.2,0.2c-0.1,0.1-0.1,0.2-0.1,0.3c0,0.1-0.1,0.2-0.1,0.3c0,0.1-0.1,0.2-0.1,0.3v13.6c-0.1,0.2-0.2,0.4-0.3,0.5
		c-0.3,0.3-0.8,0.5-1.2,0.6c-0.5,0.1-1.1,0.1-1.5,0.1c-0.5,0-2.1-0.6-2.1-0.9V5.1c0-0.2,0-0.5,0.1-0.7c0.1-0.2,0.2-0.4,0.3-0.6
		c0.6-0.9,2-1.4,3.2-1.7C102,0.5,105,1.5,109.5,4z"/>
	<path class="st0" d="M129.6,2.2c0.6,0.4,1.4,1.1,1.7,1.7c0,0.1,0.1,0.1,0.1,0.2l6.6,14.5c-0.1,0.8-0.5,1.1-1.3,1.5
		c-0.4,0.1-0.9,0.2-1,0.2c-1,0.1-1.9-0.1-2.6-0.8c-0.1-0.1-0.3-0.3-0.3-0.3c0-0.1-0.1-0.1-0.1-0.2L126,4.6c0,0-0.1-0.1-0.1-0.1
		c-0.1-0.1-0.5-0.1-0.5-0.1c-0.4,0-0.9,0.3-0.9,0.3c0,0,0,0,0,0l0,0l0,0l-5.8,8.7c-0.2,0.3-0.2,1-0.1,1.3c0,0.2,0.1,0.4,0.3,0.5
		s0.3,0.3,0.5,0.5c0.2,0.1,0.4,0.3,0.7,0.4c0.2,0.1,0.5,0.2,0.7,0.3c0.3,0.1,0.5,0.2,0.8,0.3c0.3,0.1,0.6,0.1,0.9,0.2
		c0.8,0.1,1.7,0.1,2.4-0.1c0,0,0.1,0,0.2,0c1.7-0.7,2.2-1,3.7-2c0.3,0.1,0.6,0.1,0.8,0.3c0.5,0.3,0.6,0.6,0.6,1.1
		c-3.7,3.6-9.9,5.2-14.9,2.2c-0.2-0.1-0.4-0.3-0.6-0.4c-1.4-1.1-1.4-1.8-1-2.8l7.5-11.7c0.1-0.2,0.2-0.3,0.4-0.4
		c0.1-0.1,0.3-0.3,0.5-0.4c0.2-0.1,0.4-0.2,0.6-0.3c0.2-0.1,0.4-0.2,0.7-0.3c0.4-0.2,1.9-0.5,2.3-0.5C127.1,1.3,128.3,1.5,129.6,2.2
		z"/>
	<path class="st0" d="M5.6,1.7c0.1,0,0.2,0.1,0.3,0.1C5.9,1.8,6.2,2,6.2,2c0.1,0,0,0,0.1,0c0.1,0,0.2,0.1,0.2,0.1l0,0
		c0.6,0.3,5.1,5.6,5.7,6.3c0,0,0,0,0,0c0,0,0,0,0.1,0.1c0,0,0.1,0.1,0.1,0.1c0,0,0.2,0,0.2,0c0,0,0.1,0,0.1,0c0,0,0,0,0.1,0
		c1.1,0,6.7-5.7,7.8-6.7c0.8-0.4,1.6-0.3,2.4,0.1c0.7,0.4,0.8,0.9,0.8,1.1l0,15.4c0,0.1-0.1,0.2-0.1,0.3c-0.1,0.1-0.3,0.3-0.4,0.5
		c-0.2,0.1-0.4,0.3-0.6,0.3c-0.1,0-0.2,0.1-0.4,0.1C21.3,20,19,20,18.7,18.9c0-0.1,0-0.2,0-0.3l0-10.1c0,0,0,0,0,0l0,0l0,0l0,0
		c0-0.2-0.4-0.2-0.4-0.2c-0.1,0-0.3,0-0.3,0.1L13,12.9c-0.4,0.3-1.4,0.4-1.9,0.3c0,0-0.5-0.1-0.6-0.2c0,0,0,0,0,0L5.9,8.3
		c-0.2,0-0.5,0.1-0.5,0.3l0,10.7c0,0.1-0.1,0.1-0.1,0.2C4.8,19.8,4.1,20,3.4,20c-0.7,0-1.3-0.1-1.9-0.4c-0.1,0-0.3-0.2-0.3-0.2
		l0-16.6c0-0.1,0.1-0.2,0.2-0.3c0.1-0.1,0.2-0.2,0.3-0.3c0.2-0.2,0.8-0.6,1.1-0.7l0,0c0.2,0,0.4-0.1,0.6-0.1c0,0,0,0,0.1,0
		c0,0,0,0,0,0c0,0,0,0,0.1,0C4.5,1.6,4.8,1.6,5.6,1.7z"/>
</g>
<g>
	<path class="st1" d="M5,24.2c-0.6,1.2-1.2,2.5-1.7,3.7l-0.5,1.2l-0.5,1.3l-0.4,1.3c0,0-0.1,0.1-0.2,0.1c0,0.1-0.1,0-0.1-0.1
		c-0.2-0.2-0.3-0.4-0.3-0.7c0-0.3,0.1-0.6,0.1-0.9l0.5-1.7c0.2-0.6,0.3-1.1,0.5-1.6L3,25.2c0.1-0.2,0.2-0.6,0.4-0.8
		c0.1-0.3,0.2-0.6,0.4-0.9c0.1-0.1,0.2-0.2,0.2-0.4C4.1,23,4.2,23,4.4,22.9c0.1,0,0.2,0.1,0.2,0.1c0,0.1,0.1,0.1,0.2,0.2
		C4.9,23.3,5,23.4,5,23.6l0.1,0.1v0.1C5.1,24,5,24.1,5,24.2L5,24.2z"/>
	<path class="st1" d="M8.3,28.4c0.2,0,0.6-0.1,0.9-0.4c0.2-0.1,0.4-0.2,0.7-0.2c0.2,0,0.4,0,0.6,0.1c0.2,0.1,0.4,0.2,0.6,0.4
		c0.1,0.1,0.2,0.3,0.3,0.6l0.1,0.5l0.1,0.7v0.4v0.4v0.2c0,0.1-0.1,0.2-0.3,0.2c-0.1,0.1-0.3,0-0.4-0.1c-0.1-0.1-0.2-0.2-0.2-0.4
		l-0.1-0.9c0-0.1,0-0.2-0.1-0.4l-0.1-0.4c-0.1-0.2-0.2-0.4-0.5-0.4c-0.1,0-0.2,0-0.3,0.1c-0.4,0.1-0.7,0.2-1,0.4
		c-0.4,0.3-0.7,0.6-1,0.9l-0.8,1.1c-0.1,0.1-0.2,0.2-0.4,0.2H6.3C6.1,31.2,6,31.1,6,30.9c0-0.1,0-0.1,0.1-0.2
		c0.2-0.6,0.5-1.2,0.7-1.8l0.3-0.8l0.2-0.9c0.1-0.3,0.7-0.5,0.9,0c0,0.1,0,0.2-0.1,0.4l-0.1,0.3C8,28.1,7.8,28.4,8.3,28.4z"/>
	<path class="st1" d="M14.9,28.4c0.2,0,0.6-0.1,0.9-0.4c0.2-0.1,0.4-0.2,0.7-0.2c0.2,0,0.4,0,0.6,0.1c0.2,0.1,0.4,0.2,0.6,0.4
		c0.2,0.1,0.2,0.3,0.3,0.6l0.1,0.5l0.1,0.7v0.4v0.4v0.2c0,0.1-0.1,0.2-0.2,0.2c-0.2,0.1-0.3,0-0.4-0.1c-0.1-0.1-0.2-0.2-0.2-0.4
		l-0.1-0.9c0-0.1,0-0.2-0.1-0.4l-0.1-0.4c-0.1-0.2-0.2-0.4-0.5-0.4c-0.1,0-0.2,0-0.3,0.1c-0.4,0.1-0.7,0.2-0.9,0.4
		c-0.4,0.3-0.8,0.6-1,0.9l-0.8,1.1c-0.1,0.1-0.2,0.2-0.4,0.2h-0.2c-0.1-0.1-0.2-0.2-0.2-0.3c0-0.1,0-0.1,0.1-0.2
		c0.2-0.6,0.5-1.2,0.7-1.8l0.3-0.8l0.3-0.9c0-0.2,0.1-0.2,0.4-0.3l0.2,0.1c0.1,0,0.1,0.1,0.2,0.2c0,0.1,0,0.2-0.1,0.4l-0.1,0.3
		C14.7,28.1,14.5,28.4,14.9,28.4z"/>
	<path class="st1" d="M24.2,28.6c0-0.5-0.4-0.8-0.9-0.8c-0.2,0-0.4,0.1-0.6,0.1c-0.4,0.1-0.7,0.3-1,0.6c-1.9,1.3-1.2,2.8,1,1.6
		C23.2,29.8,24.2,29.3,24.2,28.6L24.2,28.6z M24.2,27.1c0.3,0,0.8,0.3,0.9,0.6c0.7,1.1-1.1,2.6-2,3c-1,0.6-3.6,0.9-3.6-0.6
		c0-0.1,0.1-0.3,0.1-0.5c0.2-0.6,0.5-1,0.8-1.4c0.3-0.3,0.7-0.7,1.3-1c0.5-0.3,1-0.5,1.6-0.6l0.2-0.1c0.1,0,0.2,0,0.2,0.1
		c0.1,0.1,0.2,0.2,0.3,0.3L24.2,27.1z"/>
	<path class="st1" d="M32.5,27.4l-0.4,0.6l-0.4,0.4l-0.4,0.5l-0.4,0.4c-0.2,0.2-0.4,0.4-0.6,0.6c-0.2,0.2-0.4,0.4-0.6,0.6
		c-0.4,0.3-0.8,0.7-1.3,0.9c-0.1,0.1-0.2,0.2-0.4,0.2h-0.1c-0.1,0-0.2,0-0.4-0.1c-0.6-0.6-0.6-4.5,0.3-4.8c0.1,0,0.2-0.1,0.3-0.1
		l0.2,0.1c0.1,0,0.1,0.1,0.1,0.3c-0.1,0.4-0.6,3.4-0.1,3.4c0.2-0.1,0.6-0.3,1.1-0.7l1-1.1l0.6-0.7l0.6-0.7l0.4-0.4
		c0.1-0.2,0.2-0.2,0.4-0.2c0.2,0.1,0.3,0.1,0.4,0.2v0.2c0,0.1,0,0.1,0,0.2L32.5,27.4z"/>
	<path class="st1" d="M38.3,28.7c-0.1,0.1-0.1,0.1-0.2,0.1l-0.2,0.1c-0.1,0-0.2-0.1-0.3-0.2c-0.1-0.1-0.2-0.1-0.3-0.2l-0.2-0.1
		c-0.2,0-0.4,0.1-0.6,0.2l-0.4,0.2l-0.3,0.3c-0.2,0.2-1.3,1.3-0.2,0.9c0.2-0.1,0.5-0.2,0.7-0.4l0.4-0.2l0.4-0.2l0.2-0.1
		c0.1,0,0.2,0.1,0.4,0.2l0.5,0.4c0.6,0.6,0.9,0.8,1.7,0.9c0.1,0.1,0.1,0.1,0.2,0.3c0.1,0.3,0.1,0.5-0.3,0.5h-0.1
		c-0.2,0-0.5-0.1-0.7-0.2c-0.2-0.1-0.5-0.2-0.8-0.4c-0.1-0.1-0.2-0.2-0.4-0.4c-0.2-0.2-0.4-0.2-0.6-0.2h-0.1c-0.3,0-0.7,0.1-1.1,0.5
		c-0.5,0.4-1,0.7-1.6,0.7c-0.6,0-0.6-0.2-0.6-0.7c0.2-0.7,0.6-1.4,1.2-2.1c0.5-0.6,1.1-1,1.9-1.4c0.1-0.1,0.4-0.2,0.8-0.2h0.2
		c0.2,0,0.5,0.1,0.6,0.2c0.1,0.2,0.2,0.4,0.2,0.6C38.4,28.3,38.4,28.4,38.3,28.7L38.3,28.7z"/>
	<path class="st1" d="M45.4,24.1L45,24.7l-0.4,0.6c-0.4,0.7-0.1,0.5,0.8,0.3c0.3,0,0.5,0.1,0.5,0.3c0,0.1-0.1,0.2-0.2,0.3l-0.3,0.1
		l-0.7,0.2L44,26.6c-0.2,0.1-0.7,1.2-0.8,1.3c-0.1,0.3-0.2,0.6-0.3,0.9c-0.1,0.3-0.1,0.5-0.1,0.8v0.2c0,0.8,0.8,0.8,1.3,0.5
		c0.2-0.1,0.9-0.7,1-0.7c0,0,0.1,0.1,0.1,0.1c0.1,0.1,0.1,0.1,0.1,0.2c-0.1,0.2-0.2,0.4-0.4,0.6c-0.6,0.5-1.1,0.9-2,0.9
		c-1.6,0-1.3-1.7-1.1-2.7c0.2-0.6,0.4-1.1,0.6-1.6c-0.1-0.1-0.2,0-0.7,0.1l-0.8,0.2c-0.3,0-0.5,0.1-0.6-0.2c0-0.2,0-0.3,0.1-0.4
		c0.2-0.2,0.6-0.3,1.3-0.5l0.8-0.2l0.5-0.1l0.1-0.1l0.8-1.2c0.2-0.3,0.6-1,0.9-1.2c0.2-0.2,0.7-0.7,1-0.4c0.1,0.1,0.1,0.1,0.1,0.2
		C46,23.6,45.7,23.8,45.4,24.1L45.4,24.1z"/>
	<path class="st1" d="M49.5,27.6l-0.3,0.4c-0.2,0.2-0.3,0.5-0.5,0.8c-0.1,0.3-0.3,0.7-0.4,1.1l-0.1,0.6c-0.1,0.3-0.2,0.8-0.4,0.9
		c-0.1,0-0.2,0-0.3-0.1c-0.1-0.1-0.2-0.3-0.2-0.5v-0.6c0.1-0.6,0.2-1.1,0.4-1.7c0.2-0.5,0.4-1,0.6-1.4c0.1-0.2,0.2-0.4,0.4-0.6
		c0.1-0.1,0.2-0.2,0.4-0.2c0.4,0,0.7,0.3,0.7,0.7C49.9,27.2,49.6,27.5,49.5,27.6L49.5,27.6z M51.2,24.8C51.2,25,51,25,50.8,25
		c-0.1,0-0.3-0.1-0.4-0.1c-0.1-0.1-0.2-0.3-0.2-0.5l-0.1-0.2c0-0.1,0.1-0.2,0.1-0.4c0.1-0.1,0.2-0.2,0.4-0.2c0.2,0,0.3,0.1,0.4,0.1
		c0.1,0.1,0.2,0.2,0.2,0.4l0.1,0.2C51.4,24.5,51.3,24.7,51.2,24.8L51.2,24.8z"/>
	<path class="st1" d="M60.5,28.4h0.1c0.3,0,0.6-0.1,0.9-0.4c0.3-0.2,1-0.2,1.4-0.1c0.4,0.1,0.9,0.5,1,0.9l0.1,0.5l0.1,0.7
		c0,0.4,0.1,1.8-0.7,1c-0.1-0.1-0.1-0.2-0.2-0.4c-0.1-0.6,0-2-0.8-2c-0.1,0-0.2,0-0.3,0.1c-0.4,0.1-0.7,0.2-0.9,0.4
		c-0.4,0.3-0.7,0.6-1,0.9l-0.8,1.1c-0.1,0.1-0.2,0.2-0.4,0.2c-0.2,0-0.5-0.1-0.5-0.3c0-0.1,0-0.1,0.1-0.2c0.2-0.6,0.5-1.2,0.7-1.8
		l0.6-1.7c0.1-0.2,0.8-0.7,0.8,0.4l-0.1,0.3l-0.1,0.4C60.3,28.3,60.3,28.4,60.5,28.4L60.5,28.4z"/>
	<path class="st1" d="M78.9,24.4c-1,1.6-1.7,3.2-2.3,5.1v0.1c0,0,0,0.1,0.1,0.1c0.1,0,0.2-0.1,0.3-0.1c0.4-0.2,1.1-0.7,1.4-1
		c0.2-0.2,0.6-0.3,0.9-0.3c0.2,0,0.5,0.1,0.7,0.2c0.4,0.4,0.5,0.7,0.7,1.2c0.1,0.1,0.2,1.8,0.2,1.9c0,0.5-0.7,0.6-0.9-0.4
		c-0.1-0.3-0.1-0.6-0.2-0.9c-0.1-0.2-0.1-0.5-0.3-0.7c-0.1-0.2-0.2-0.3-0.4-0.4c-0.2,0-0.4,0.1-0.6,0.2l-0.9,0.8l-0.4,0.3l-0.4,0.3
		l-0.4,0.2c-0.6,0.4-0.9,0.2-0.9-0.5c0-0.8,0.4-1.9,0.7-2.7c0.3-0.8,0.6-1.6,1-2.3l0.3-0.7c0.2-0.5,0.5-0.9,0.8-1.4
		c0.3-0.4,1.4-1.1,1.4-0.2c0,0.1,0,0.2-0.1,0.3l-0.3,0.4L78.9,24.4z"/>
	<path class="st1" d="M104.7,27.9c-0.7,0.1-1.3,0.3-1.9,0.7c-0.4,0.2-3.1,2.4-1.3,2.4h0.1l0.7-0.1l0.4-0.1l0.4-0.2
		c0.2-0.1,0.5-0.2,0.8-0.5c0.3-0.2,0.6,0,0.4,0.3c-0.5,0.5-1.2,0.8-2,1.1c-0.7,0.2-1.2,0.2-1.7,0.2c-3.1,0,0.6-3.1,1.5-3.7
		c0.6-0.4,1.2-0.7,2-0.9c0.3-0.1,0.7,0,0.7,0.2C104.9,27.7,104.8,27.9,104.7,27.9L104.7,27.9z"/>
	<path class="st1" d="M118.6,29.3v0.6c0,0.8,0.3,1.6-0.4,1.6c-0.1,0-0.2-0.1-0.2-0.1c-0.3-0.3-0.3-0.8-0.3-1.2v-0.4v-0.5V29
		c0-0.1,0.1-0.5-0.1-0.3c-0.5,0.4-0.9,0.8-1.3,1.2c-0.5,0.5-0.9,0.9-1.3,1.2c-0.4,0.3-0.9,0.4-1.4,0.2c-0.5-0.1-0.8-0.6-0.8-1.1
		c0-1.1,0.2-1.8,0.9-2.7c0.3-0.6,1.4-0.4,0.9,0.5l-0.2,0.3l-0.2,0.5c-0.1,0.2-0.2,0.6-0.3,0.9c0,0.3,0.2,0.4,0.5,0.4
		c0.5,0,2.6-2.5,3.5-3.1c0.1,0,0.2-0.1,0.3-0.1c0.2,0,0.4,0.1,0.5,0.2c0.1,0.1,0.2,0.3,0.2,0.5v0.1l-0.1,0.4L118.6,29.3z"/>
	<path class="st1" d="M137.5,27c0,0-1.6,0.2-2,0.3c-0.3,0-0.6,0.4-0.6,0.7c0,0.3,0.3,0.4,0.5,0.6l0.4,0.2c0.4,0.2,0.7,0.3,0.7,0.8
		c0,0.2-0.1,0.4-0.3,0.6l-0.7,0.5c-0.4,0.2-0.8,0.3-1.2,0.4c-0.4,0.1-0.8,0.2-1.2,0.2c-0.5,0-0.9-0.3-0.3-0.6
		c0.4-0.1,0.9-0.1,1.2-0.2c0.3-0.1,1.1-0.4,1.1-0.8c0-0.3-0.6-0.6-0.9-0.7c-0.2-0.1-0.4-0.3-0.6-0.6c-0.1-0.2-0.1-0.3-0.1-0.4
		c0-0.1,0.1-0.3,0.1-0.4c0.1-0.3,0.4-0.6,0.7-0.8c0.8-0.5,1.6-0.6,2.6-0.7c0.1,0,0.3,0,0.5,0.1C138.1,26.3,138.1,26.9,137.5,27z"/>
	<path class="st1" d="M86.4,28.7c-0.1,0.1-0.1,0.1-0.2,0.1l-0.2,0.1c-0.1,0-0.2-0.1-0.3-0.2c-0.1-0.1-0.2-0.1-0.3-0.2l-0.2-0.1
		c-0.2,0-0.4,0.1-0.6,0.2l-0.4,0.2l-0.3,0.3c-0.2,0.2-1.3,1.3-0.2,0.9c0.2-0.1,0.5-0.2,0.7-0.4l0.4-0.2l0.4-0.2l0.2-0.1
		c0.1,0,0.2,0.1,0.4,0.2l0.5,0.4c0.6,0.6,0.9,0.8,1.7,0.9c0.1,0.1,0.1,0.1,0.2,0.3c0.1,0.3,0.1,0.5-0.3,0.5h-0.1
		c-0.2,0-0.5-0.1-0.7-0.2c-0.2-0.1-0.5-0.2-0.8-0.4c-0.1-0.1-0.2-0.2-0.4-0.4c-0.2-0.2-0.4-0.2-0.6-0.2H85c-0.3,0-0.7,0.1-1.1,0.5
		c-0.5,0.4-1,0.7-1.6,0.7c-0.6,0-0.6-0.2-0.6-0.7c0.2-0.7,0.6-1.4,1.2-2.1c0.5-0.6,1.1-1,1.9-1.4c0.1-0.1,0.4-0.2,0.8-0.2h0.2
		c0.2,0,0.5,0.1,0.6,0.2c0.1,0.2,0.2,0.4,0.2,0.6C86.6,28.3,86.5,28.4,86.4,28.7L86.4,28.7z"/>
	<path class="st1" d="M121.9,28.4h0.1c0.3,0,0.6-0.1,0.9-0.4c0.3-0.2,1-0.2,1.4-0.1c0.4,0.1,0.9,0.5,1,0.9l0.1,0.5l0.1,0.7
		c0,0.4,0.1,1.8-0.7,1c-0.1-0.1-0.1-0.2-0.2-0.4c-0.1-0.6,0-2-0.8-2c-0.1,0-0.2,0-0.3,0.1c-0.4,0.1-0.7,0.2-0.9,0.4
		c-0.4,0.3-0.7,0.6-1,0.9l-0.8,1.1c-0.1,0.1-0.2,0.2-0.4,0.2c-0.2,0-0.5-0.1-0.5-0.3c0-0.1,0-0.1,0.1-0.2c0.2-0.6,0.5-1.2,0.7-1.8
		l0.6-1.7c0.1-0.2,0.8-0.7,0.8,0.4l-0.1,0.3l-0.1,0.4C121.7,28.3,121.8,28.4,121.9,28.4L121.9,28.4z"/>
	<path class="st1" d="M56.3,28.6c0-0.5-0.4-0.8-0.9-0.8c-0.2,0-0.4,0.1-0.6,0.1c-0.4,0.1-0.7,0.3-1,0.6c-1.9,1.3-1.2,2.8,1,1.6
		C55.3,29.8,56.3,29.3,56.3,28.6L56.3,28.6z M56.3,27.1c0.3,0,0.8,0.3,0.9,0.6c0.7,1.1-1.1,2.6-2,3c-1,0.6-3.6,0.9-3.6-0.6
		c0-0.1,0.1-0.3,0.1-0.5c0.2-0.6,0.5-1,0.8-1.4c0.3-0.3,0.7-0.7,1.3-1c0.5-0.3,1-0.5,1.6-0.6l0.2-0.1c0.1,0,0.2,0,0.2,0.1
		c0.1,0.1,0.2,0.2,0.3,0.3L56.3,27.1z"/>
	<path class="st1" d="M110.7,28.6c0-0.5-0.4-0.8-0.9-0.8c-0.2,0-0.4,0.1-0.6,0.1c-0.4,0.1-0.7,0.3-1,0.6c-1.9,1.3-1.2,2.8,1,1.6
		C109.7,29.8,110.7,29.3,110.7,28.6L110.7,28.6z M110.7,27.1c0.3,0,0.8,0.3,0.9,0.6c0.7,1.1-1.1,2.6-2,3c-1,0.6-3.6,0.9-3.6-0.6
		c0-0.1,0.1-0.3,0.1-0.5c0.2-0.6,0.5-1,0.8-1.4c0.3-0.3,0.7-0.7,1.3-1c0.5-0.3,1-0.5,1.6-0.6l0.2-0.1c0.1,0,0.2,0,0.2,0.1
		c0.1,0.1,0.2,0.2,0.3,0.3L110.7,27.1z"/>
	<path class="st1" d="M74.1,24.1l-0.4,0.6l-0.4,0.6c-0.4,0.7-0.1,0.5,0.8,0.3c0.3,0,0.5,0.1,0.5,0.3c0,0.1-0.1,0.2-0.2,0.3l-0.3,0.1
		l-0.7,0.2l-0.7,0.1c-0.2,0.1-0.7,1.2-0.8,1.3c-0.1,0.3-0.2,0.6-0.3,0.9c-0.1,0.3-0.1,0.5-0.1,0.8v0.2c0,0.8,0.8,0.8,1.3,0.5
		c0.2-0.1,0.9-0.7,1-0.7c0,0,0.1,0.1,0.1,0.1c0.1,0.1,0.1,0.1,0.1,0.2c-0.1,0.2-0.2,0.4-0.4,0.6c-0.6,0.5-1.1,0.9-2,0.9
		c-1.6,0-1.3-1.7-1.1-2.7c0.2-0.6,0.4-1.1,0.6-1.6c-0.1-0.1-0.2,0-0.7,0.1l-0.8,0.2c-0.3,0-0.5,0.1-0.6-0.2c0-0.2,0-0.3,0.1-0.4
		c0.2-0.2,0.6-0.3,1.3-0.5l0.8-0.2l0.5-0.1l0.1-0.1l0.8-1.2c0.2-0.3,0.6-1,0.9-1.2c0.2-0.2,0.7-0.7,1-0.4c0.1,0.1,0.1,0.1,0.1,0.2
		C74.7,23.6,74.4,23.8,74.1,24.1L74.1,24.1z"/>
	<path class="st1" d="M93.6,24.1l-0.4,0.6l-0.4,0.6c-0.4,0.7-0.1,0.5,0.8,0.3c0.3,0,0.5,0.1,0.5,0.3c0,0.1-0.1,0.2-0.2,0.3l-0.3,0.1
		l-0.7,0.2l-0.7,0.1c-0.2,0.1-0.7,1.2-0.8,1.3c-0.1,0.3-0.2,0.6-0.3,0.9c-0.1,0.3-0.1,0.5-0.1,0.8v0.2c0,0.8,0.8,0.8,1.3,0.5
		c0.2-0.1,0.9-0.7,1-0.7c0,0,0.1,0.1,0.1,0.1c0.1,0.1,0.1,0.1,0.1,0.2c-0.1,0.2-0.2,0.4-0.4,0.6c-0.6,0.5-1.1,0.9-2,0.9
		c-1.6,0-1.3-1.7-1.1-2.7c0.2-0.6,0.4-1.1,0.6-1.6c-0.1-0.1-0.2,0-0.7,0.1l-0.8,0.2c-0.3,0-0.5,0.1-0.6-0.2c0-0.2,0-0.3,0.1-0.4
		c0.2-0.2,0.6-0.3,1.3-0.5l0.8-0.2l0.5-0.1l0.1-0.1l0.8-1.2c0.2-0.3,0.6-1,0.9-1.2c0.2-0.2,0.7-0.7,1-0.4C94,23,94,23.1,94,23.1
		C94.1,23.6,93.9,23.8,93.6,24.1L93.6,24.1z"/>
	<path class="st1" d="M130.9,24.1l-0.4,0.6l-0.4,0.6c-0.4,0.7-0.1,0.5,0.8,0.3c0.3,0,0.5,0.1,0.5,0.3c0,0.1-0.1,0.2-0.2,0.3
		l-0.3,0.1l-0.7,0.2l-0.7,0.1c-0.2,0.1-0.7,1.2-0.8,1.3c-0.1,0.3-0.2,0.6-0.3,0.9c-0.1,0.3-0.1,0.5-0.1,0.8v0.2
		c0,0.8,0.8,0.8,1.3,0.5c0.2-0.1,0.9-0.7,1-0.7c0,0,0.1,0.1,0.1,0.1c0.1,0.1,0.1,0.1,0.1,0.2c-0.1,0.2-0.2,0.4-0.4,0.6
		c-0.6,0.5-1.1,0.9-2,0.9c-1.6,0-1.3-1.7-1.1-2.7c0.2-0.6,0.4-1.1,0.6-1.6c-0.1-0.1-0.2,0-0.7,0.1l-0.8,0.2c-0.3,0-0.5,0.1-0.6-0.2
		c0-0.2,0-0.3,0.1-0.4c0.2-0.2,0.6-0.3,1.3-0.5l0.8-0.2l0.5-0.1l0.1-0.1l0.8-1.2c0.2-0.3,0.6-1,0.9-1.2c0.2-0.2,0.7-0.7,1-0.4
		c0.1,0.1,0.1,0.1,0.1,0.2C131.5,23.6,131.2,23.8,130.9,24.1L130.9,24.1z"/>
</g>
</svg>
