<?xml version="1.0" encoding="UTF-8"?>
<svg xmlns="http://www.w3.org/2000/svg" width="220" height="50" viewBox="0 0 220 50" fill="none">
  <path d="M41.8838 44V36.9541H44.6621C45.1439 36.9541 45.5605 37.0436 45.9121 37.2227C46.2637 37.3984 46.5339 37.6475 46.7227 37.9697C46.9147 38.2887 47.0107 38.6663 47.0107 39.1025V39.1123C47.0107 39.5876 46.8903 40.0059 46.6494 40.3672C46.4085 40.7253 46.0732 40.9775 45.6436 41.124L47.2207 44H45.9561L44.5205 41.29C44.5107 41.29 44.501 41.29 44.4912 41.29C44.4814 41.29 44.4717 41.29 44.4619 41.29H42.9775V44H41.8838ZM42.9775 40.4014H44.5547C44.9746 40.4014 45.3001 40.2923 45.5312 40.0742C45.7624 39.8529 45.8779 39.542 45.8779 39.1416V39.1318C45.8779 38.7412 45.7575 38.4336 45.5166 38.209C45.279 37.9844 44.9469 37.8721 44.5205 37.8721H42.9775V40.4014ZM48.0312 44L50.5752 36.9541H51.459V38.1895H51.127L49.1836 44H48.0312ZM49.2568 42.0957L49.5645 41.2168H52.7725L53.0801 42.0957H49.2568ZM53.1484 44L51.21 38.1895V36.9541H51.7617L54.3008 44H53.1484ZM55.5264 44V36.9541H56.5176L60.4043 42.457L59.6572 42.0713H60.209V36.9541H61.2783V44H60.2871L56.3955 38.502L57.1475 38.8877H56.5908V44H55.5264ZM64.0469 41.7588L63.9932 40.2842H64.2227L67.1328 36.9541H68.4316L65.6094 40.123L65.0283 40.6455L64.0469 41.7588ZM63.0459 44V36.9541H64.1396V44H63.0459ZM67.2939 44L64.8477 40.6357L65.6191 39.8936L68.6611 44H67.2939ZM69.8232 44V36.9541H74.2959V37.9014H70.917V39.957H74.1152V40.8652H70.917V43.0527H74.2959V44H69.8232ZM75.8779 44V36.9541H78.4219C79.1217 36.9541 79.7191 37.0924 80.2139 37.3691C80.7087 37.6458 81.0863 38.0446 81.3467 38.5654C81.6104 39.0863 81.7422 39.7161 81.7422 40.4551V40.4648C81.7422 41.2103 81.6104 41.8467 81.3467 42.374C81.0863 42.9014 80.7087 43.305 80.2139 43.585C79.7223 43.8617 79.125 44 78.4219 44H75.8779ZM76.9717 43.0527H78.2998C78.7913 43.0527 79.2096 42.9518 79.5547 42.75C79.903 42.5482 80.1667 42.2552 80.3457 41.8711C80.528 41.487 80.6191 41.0231 80.6191 40.4795V40.4697C80.6191 39.9294 80.5264 39.4671 80.3408 39.083C80.1585 38.6989 79.8949 38.4059 79.5498 38.2041C79.2048 38.0023 78.7881 37.9014 78.2998 37.9014H76.9717V43.0527ZM85.9463 44V36.9541H86.9375L90.8242 42.457L90.0771 42.0713H90.6289V36.9541H91.6982V44H90.707L86.8154 38.502L87.5674 38.8877H87.0107V44H85.9463ZM96.4688 44.1709C95.7852 44.1709 95.1976 44.0212 94.7061 43.7217C94.2145 43.4189 93.8369 42.9909 93.5732 42.4375C93.3096 41.8841 93.1777 41.2314 93.1777 40.4795V40.4697C93.1777 39.7113 93.3112 39.057 93.5781 38.5068C93.8451 37.9567 94.2243 37.5319 94.7158 37.2324C95.2106 36.9329 95.7949 36.7832 96.4688 36.7832C97.1458 36.7832 97.7301 36.9329 98.2217 37.2324C98.7132 37.5319 99.0908 37.9583 99.3545 38.5117C99.6214 39.0618 99.7549 39.7145 99.7549 40.4697V40.4795C99.7549 41.2314 99.623 41.8841 99.3594 42.4375C99.0957 42.9876 98.7165 43.4141 98.2217 43.7168C97.7301 44.0195 97.1458 44.1709 96.4688 44.1709ZM96.4688 43.1992C96.9115 43.1992 97.2956 43.0869 97.6211 42.8623C97.9466 42.6377 98.1973 42.3219 98.373 41.915C98.5488 41.5049 98.6367 41.0264 98.6367 40.4795V40.4697C98.6367 39.9163 98.5488 39.4362 98.373 39.0293C98.1973 38.6224 97.9466 38.3083 97.6211 38.0869C97.2956 37.8656 96.9115 37.7549 96.4688 37.7549C96.026 37.7549 95.6419 37.8656 95.3164 38.0869C94.9941 38.3083 94.7435 38.6224 94.5645 39.0293C94.3854 39.4362 94.2959 39.9163 94.2959 40.4697V40.4795C94.2959 41.0264 94.3822 41.5049 94.5547 41.915C94.7305 42.3219 94.9795 42.6377 95.3018 42.8623C95.6273 43.0869 96.0163 43.1992 96.4688 43.1992ZM101.474 44.0781C101.272 44.0781 101.101 44.0081 100.961 43.8682C100.824 43.7282 100.756 43.5605 100.756 43.3652C100.756 43.1634 100.824 42.9941 100.961 42.8574C101.101 42.7207 101.272 42.6523 101.474 42.6523C101.679 42.6523 101.85 42.7207 101.986 42.8574C102.123 42.9941 102.191 43.1634 102.191 43.3652C102.191 43.5605 102.123 43.7282 101.986 43.8682C101.85 44.0081 101.679 44.0781 101.474 44.0781ZM105.17 44V38.082H105.092L103.319 39.3467V38.2725L105.175 36.9541H106.269V44H105.17ZM110.57 44L113.114 36.9541H113.998V38.1895H113.666L111.723 44H110.57ZM111.796 42.0957L112.104 41.2168H115.312L115.619 42.0957H111.796ZM115.688 44L113.749 38.1895V36.9541H114.301L116.84 44H115.688ZM118.065 44V36.9541H119.057L122.943 42.457L122.196 42.0713H122.748V36.9541H123.817V44H122.826L118.935 38.502L119.687 38.8877H119.13V44H118.065ZM127.372 44V37.9014H125.155V36.9541H130.683V37.9014H128.466V44H127.372ZM132.021 44V36.9541H133.114V44H132.021ZM136.845 44L134.34 36.9541H135.531L137.411 42.6768H137.494L139.374 36.9541H140.57L138.061 44H136.845ZM141.796 44V36.9541H142.89V44H141.796ZM144.657 44V36.9541H147.436C147.917 36.9541 148.334 37.0436 148.686 37.2227C149.037 37.3984 149.307 37.6475 149.496 37.9697C149.688 38.2887 149.784 38.6663 149.784 39.1025V39.1123C149.784 39.5876 149.664 40.0059 149.423 40.3672C149.182 40.7253 148.847 40.9775 148.417 41.124L149.994 44H148.729L147.294 41.29C147.284 41.29 147.274 41.29 147.265 41.29C147.255 41.29 147.245 41.29 147.235 41.29H145.751V44H144.657ZM145.751 40.4014H147.328C147.748 40.4014 148.074 40.2923 148.305 40.0742C148.536 39.8529 148.651 39.542 148.651 39.1416V39.1318C148.651 38.7412 148.531 38.4336 148.29 38.209C148.052 37.9844 147.72 37.8721 147.294 37.8721H145.751V40.4014ZM154.193 44.1709C153.604 44.1709 153.096 44.0618 152.67 43.8438C152.243 43.6257 151.915 43.3229 151.684 42.9355C151.452 42.5449 151.337 42.0908 151.337 41.5732V36.9541H152.436V41.4902C152.436 41.998 152.589 42.4098 152.895 42.7256C153.204 43.0413 153.637 43.1992 154.193 43.1992C154.757 43.1992 155.189 43.0413 155.492 42.7256C155.795 42.4098 155.946 41.998 155.946 41.4902V36.9541H157.045V41.5732C157.045 42.0908 156.929 42.5449 156.698 42.9355C156.47 43.3229 156.143 43.6257 155.717 43.8438C155.294 44.0618 154.786 44.1709 154.193 44.1709ZM161.19 44.1709C160.66 44.1709 160.198 44.0879 159.804 43.9219C159.41 43.7526 159.099 43.5182 158.871 43.2188C158.643 42.9193 158.513 42.5726 158.48 42.1787L158.476 42.1152H159.555L159.56 42.1689C159.582 42.3805 159.665 42.5645 159.809 42.7207C159.955 42.877 160.15 42.999 160.395 43.0869C160.642 43.1748 160.924 43.2188 161.239 43.2188C161.535 43.2188 161.799 43.1715 162.03 43.0771C162.261 42.9827 162.442 42.8525 162.572 42.6865C162.706 42.5205 162.772 42.3301 162.772 42.1152V42.1104C162.772 41.8402 162.67 41.6156 162.465 41.4365C162.26 41.2575 161.924 41.1175 161.459 41.0166L160.688 40.8555C159.975 40.7025 159.455 40.46 159.13 40.1279C158.804 39.7926 158.642 39.3646 158.642 38.8438V38.8389C158.645 38.432 158.754 38.0739 158.969 37.7646C159.187 37.4554 159.488 37.2145 159.872 37.042C160.256 36.8695 160.697 36.7832 161.195 36.7832C161.693 36.7832 162.128 36.8695 162.499 37.042C162.873 37.2113 163.168 37.4424 163.383 37.7354C163.601 38.0283 163.723 38.3587 163.749 38.7266L163.754 38.79H162.685L162.675 38.7266C162.646 38.5345 162.566 38.3636 162.436 38.2139C162.309 38.0641 162.138 37.9469 161.923 37.8623C161.711 37.7744 161.464 37.7321 161.181 37.7354C160.907 37.7354 160.663 37.7777 160.448 37.8623C160.233 37.9437 160.062 38.0625 159.936 38.2188C159.812 38.375 159.75 38.5638 159.75 38.7852V38.79C159.75 39.0505 159.849 39.2686 160.048 39.4443C160.25 39.6169 160.577 39.752 161.029 39.8496L161.801 40.0205C162.54 40.1768 163.07 40.4111 163.393 40.7236C163.718 41.0361 163.881 41.4528 163.881 41.9736V41.9785C163.881 42.4277 163.77 42.8167 163.549 43.1455C163.331 43.471 163.02 43.7233 162.616 43.9023C162.213 44.0814 161.737 44.1709 161.19 44.1709ZM171.02 44.1709C170.352 44.1709 169.774 44.0212 169.286 43.7217C168.798 43.4222 168.42 42.9958 168.153 42.4424C167.89 41.8857 167.758 41.2314 167.758 40.4795V40.4697C167.758 39.721 167.891 39.0716 168.158 38.5215C168.425 37.9681 168.803 37.54 169.291 37.2373C169.779 36.9346 170.351 36.7832 171.005 36.7832C171.539 36.7832 172.016 36.8776 172.436 37.0664C172.855 37.2552 173.201 37.5205 173.471 37.8623C173.741 38.2008 173.918 38.598 174.003 39.0537L174.008 39.1025H172.909L172.895 39.0537C172.771 38.637 172.545 38.3164 172.216 38.0918C171.89 37.8672 171.487 37.7549 171.005 37.7549C170.572 37.7549 170.196 37.8656 169.877 38.0869C169.558 38.3083 169.311 38.6224 169.135 39.0293C168.962 39.4329 168.876 39.9115 168.876 40.4648V40.4746C168.876 41.0345 168.964 41.5195 169.14 41.9297C169.315 42.3366 169.564 42.6507 169.887 42.8721C170.209 43.0902 170.59 43.1992 171.029 43.1992C171.413 43.1992 171.75 43.1243 172.04 42.9746C172.333 42.8216 172.561 42.61 172.724 42.3398C172.886 42.0697 172.969 41.7539 172.973 41.3926L172.978 41.2363H171.166V40.3525H174.062V41.2266C174.062 41.8223 173.936 42.3415 173.686 42.7842C173.435 43.2236 173.082 43.5654 172.626 43.8096C172.17 44.0505 171.635 44.1709 171.02 44.1709ZM175.565 44V36.9541H176.659V43.0527H179.965V44H175.565ZM184.096 44.1709C183.412 44.1709 182.825 44.0212 182.333 43.7217C181.841 43.4189 181.464 42.9909 181.2 42.4375C180.937 41.8841 180.805 41.2314 180.805 40.4795V40.4697C180.805 39.7113 180.938 39.057 181.205 38.5068C181.472 37.9567 181.851 37.5319 182.343 37.2324C182.838 36.9329 183.422 36.7832 184.096 36.7832C184.773 36.7832 185.357 36.9329 185.849 37.2324C186.34 37.5319 186.718 37.9583 186.981 38.5117C187.248 39.0618 187.382 39.7145 187.382 40.4697V40.4795C187.382 41.2314 187.25 41.8841 186.986 42.4375C186.723 42.9876 186.343 43.4141 185.849 43.7168C185.357 44.0195 184.773 44.1709 184.096 44.1709ZM184.096 43.1992C184.538 43.1992 184.923 43.0869 185.248 42.8623C185.574 42.6377 185.824 42.3219 186 41.915C186.176 41.5049 186.264 41.0264 186.264 40.4795V40.4697C186.264 39.9163 186.176 39.4362 186 39.0293C185.824 38.6224 185.574 38.3083 185.248 38.0869C184.923 37.8656 184.538 37.7549 184.096 37.7549C183.653 37.7549 183.269 37.8656 182.943 38.0869C182.621 38.3083 182.37 38.6224 182.191 39.0293C182.012 39.4362 181.923 39.9163 181.923 40.4697V40.4795C181.923 41.0264 182.009 41.5049 182.182 41.915C182.357 42.3219 182.606 42.6377 182.929 42.8623C183.254 43.0869 183.643 43.1992 184.096 43.1992ZM189.413 44V43.1064H191.542C192.037 43.1064 192.411 43.0072 192.665 42.8086C192.919 42.61 193.046 42.3219 193.046 41.9443V41.9346C193.046 41.6807 192.987 41.4691 192.87 41.2998C192.753 41.1305 192.577 41.0036 192.343 40.9189C192.112 40.8311 191.824 40.7871 191.479 40.7871H189.413V39.9521H191.259C191.744 39.9521 192.11 39.8643 192.357 39.6885C192.605 39.5094 192.729 39.249 192.729 38.9072V38.8975C192.729 38.5654 192.616 38.3083 192.392 38.126C192.167 37.9404 191.851 37.8477 191.444 37.8477H189.413V36.9541H191.703C192.143 36.9541 192.52 37.0257 192.836 37.1689C193.155 37.3122 193.399 37.5156 193.568 37.7793C193.738 38.0397 193.822 38.349 193.822 38.707V38.7168C193.822 38.9642 193.767 39.1953 193.656 39.4102C193.546 39.6217 193.397 39.8008 193.212 39.9473C193.026 40.0938 192.816 40.1865 192.582 40.2256V40.3086C192.901 40.3411 193.179 40.4339 193.417 40.5869C193.655 40.7399 193.84 40.9385 193.974 41.1826C194.107 41.4235 194.174 41.6969 194.174 42.0029V42.0127C194.174 42.4229 194.076 42.7777 193.881 43.0771C193.689 43.3734 193.414 43.6012 193.056 43.7607C192.698 43.9202 192.268 44 191.767 44H189.413ZM188.866 44V36.9541H189.96V44H188.866ZM195.033 44L197.577 36.9541H198.461V38.1895H198.129L196.186 44H195.033ZM196.259 42.0957L196.566 41.2168H199.774L200.082 42.0957H196.259ZM200.15 44L198.212 38.1895V36.9541H198.764L201.303 44H200.15ZM202.528 44V36.9541H203.622V43.0527H206.928V44H202.528ZM208.31 44V36.9541H209.403V43.0527H212.709V44H208.31ZM215.092 44V41.1143L212.611 36.9541H213.832L215.604 40.0254H215.683L217.455 36.9541H218.676L216.19 41.1143V44H215.092Z" fill="#F9FBFA"></path>
  <path fill-rule="evenodd" clip-rule="evenodd" d="M20.8323 50V30.6518C20.8323 30.6518 14.811 21.8197 0 0C2.80472 22.4423 20.8323 50 20.8323 50Z" fill="url(#paint0_linear_583_3175)"></path>
  <path fill-rule="evenodd" clip-rule="evenodd" d="M20.8301 30.6518V50C20.8301 50 38.8577 22.4423 41.6624 0C26.8514 21.8197 20.8301 30.6518 20.8301 30.6518Z" fill="url(#paint1_linear_583_3175)"></path>
  <path fill-rule="evenodd" clip-rule="evenodd" d="M20.8323 30.6518V7.71516L0 0C14.811 21.8197 20.8323 30.6518 20.8323 30.6518Z" fill="url(#paint2_linear_583_3175)"></path>
  <path fill-rule="evenodd" clip-rule="evenodd" d="M20.8301 7.71516V30.6518C20.8301 30.6518 26.8514 21.8197 41.6624 0L20.8301 7.71516Z" fill="url(#paint3_linear_583_3175)"></path>
  <path fill-rule="evenodd" clip-rule="evenodd" d="M95.3316 17.9321H96.9926L102.125 31.847H100.018L99.4563 30.2109L99.2724 29.6763L96.1612 20.6201L94.4006 25.745L92.9158 30.071L92.3066 31.847H90.1992L95.3316 17.9321Z" fill="#0095D4"></path>
  <path fill-rule="evenodd" clip-rule="evenodd" d="M85.2828 27.0116L87.8902 31.9564H85.551L83.0566 27.0116H85.2828Z" fill="white"></path>
  <path fill-rule="evenodd" clip-rule="evenodd" d="M77.6387 17.8979H83.2156C84.0259 17.8979 84.7386 18.0665 85.3555 18.4018C85.9685 18.7352 86.4475 19.2103 86.7828 19.8272C87.1219 20.4403 87.2904 21.153 87.2904 21.9577C87.2904 22.7623 87.118 23.4712 86.7789 24.0881C86.436 24.7012 85.9571 25.1763 85.344 25.5135C84.7271 25.8468 84.0183 26.0154 83.2136 26.0154H79.61V31.9584H77.6387V17.8999V17.8979ZM79.61 19.7736V24.1398H83.2903C83.6658 24.1398 83.9953 24.0517 84.2865 23.8697C84.5758 23.6877 84.7999 23.4348 84.9589 23.1014C85.1141 22.7681 85.1927 22.3887 85.1927 21.9577C85.1927 21.5266 85.1141 21.1434 84.9589 20.8139C84.7999 20.4805 84.5758 20.2238 84.2903 20.0456C84.0068 19.8636 83.6696 19.7755 83.2903 19.7755H79.61V19.7736Z" fill="white"></path>
  <path fill-rule="evenodd" clip-rule="evenodd" d="M63.3359 17.9094H68.8726C69.7788 17.9094 70.5412 18.0646 71.1505 18.3749C71.7635 18.6853 72.2214 19.1202 72.526 19.6873C72.8268 20.2544 72.9781 20.9307 72.9781 21.7181C72.9781 22.199 72.8862 22.6511 72.6984 23.0726C72.5145 23.4941 72.2271 23.8543 71.844 24.1551C71.4608 24.4559 70.9857 24.657 70.4186 24.7586C70.9857 24.8448 71.4742 25.046 71.8861 25.3621C72.298 25.682 72.6141 26.0805 72.8325 26.5557C73.0528 27.0346 73.162 27.5481 73.162 28.1018V28.1305C73.162 28.8892 72.9935 29.5578 72.6582 30.1383C72.3248 30.7188 71.844 31.1671 71.2213 31.4794C70.5987 31.7955 69.8688 31.9546 69.0393 31.9546H63.3379V17.9075L63.3359 17.9094ZM65.2977 19.7371V23.862H68.7864C69.5125 23.862 70.0623 23.6915 70.432 23.3504C70.8056 23.0075 70.9895 22.5036 70.9895 21.8331C70.9895 21.1299 70.7826 20.6069 70.3688 20.2563C69.9569 19.9095 69.34 19.7352 68.5162 19.7352H65.2977V19.7371ZM65.2977 25.6399V30.1307H68.3017C69.2998 30.1307 70.0297 29.9429 70.4838 29.5597C70.9416 29.1804 71.1696 28.6459 71.1696 27.9562V27.9274C71.1696 27.4523 71.0872 27.0442 70.9263 26.7013C70.7616 26.3622 70.501 26.0978 70.1485 25.9139C69.7922 25.7318 69.34 25.6399 68.7864 25.6399H65.2977Z" fill="white"></path>
  <path d="M58.3249 17.9097H56.3535V31.9568H58.3249V17.9097Z" fill="white"></path>
  <path fill-rule="evenodd" clip-rule="evenodd" d="M42 17.9097H44.1438L47.5175 28.922L50.8874 17.9097H53.035L48.4543 31.9568H46.5807L42 17.9097Z" fill="white"></path>
  <path fill-rule="evenodd" clip-rule="evenodd" d="M152.698 17.9097H154.541V31.9568H152.619V21.4368L152.717 22.0537L149.259 30.0045H147.887L144.427 22.2491L144.523 21.4368V31.9568H142.602V17.9097H144.448L148.573 27.1844L152.698 17.9097Z" fill="white"></path>
  <path fill-rule="evenodd" clip-rule="evenodd" d="M133.029 32.1024C131.991 32.1024 131.104 31.8974 130.368 31.4893C129.628 31.0812 129.069 30.4835 128.684 29.7018C128.295 28.9201 128.104 27.9775 128.104 26.8759V17.9097H130.073V26.941C130.073 27.966 130.334 28.7573 130.847 29.3186C131.362 29.88 132.09 30.1597 133.029 30.1597C133.968 30.1597 134.707 29.88 135.225 29.3186C135.746 28.7573 136.002 27.966 136.002 26.941V17.9097H137.974V26.8759C137.974 27.9775 137.778 28.9201 137.393 29.7018C137.008 30.4835 136.443 31.0812 135.702 31.4893C134.962 31.8974 134.069 32.1024 133.027 32.1024H133.029Z" fill="white"></path>
  <path d="M123.284 17.9097H121.312V31.9568H123.284V17.9097Z" fill="white"></path>
  <path fill-rule="evenodd" clip-rule="evenodd" d="M105.939 17.9097H107.727L114.597 28.7687L114.365 29.0178V17.9097H116.317V31.9472H114.511L107.662 21.2528L107.892 21.0019V31.9472H105.939V17.9097Z" fill="white"></path>
  <path d="M157.254 17.725C158.136 17.725 158.852 17.0097 158.852 16.1272C158.852 15.2448 158.136 14.5294 157.254 14.5294C156.372 14.5294 155.656 15.2448 155.656 16.1272C155.656 17.0097 156.372 17.725 157.254 17.725Z" stroke="white" stroke-width="0.3" stroke-miterlimit="22.93"></path>
  <path fill-rule="evenodd" clip-rule="evenodd" d="M156.553 16.9151V15.3575H157.216C157.382 15.3575 157.503 15.3709 157.578 15.3997C157.654 15.4284 157.714 15.4763 157.76 15.5491C157.806 15.62 157.829 15.7024 157.829 15.7943C157.829 15.9112 157.794 16.007 157.725 16.0836C157.656 16.1603 157.555 16.2082 157.419 16.2273C157.486 16.2675 157.543 16.3097 157.585 16.3576C157.629 16.4055 157.689 16.4898 157.764 16.6105L157.953 16.9151H157.578L157.352 16.576C157.271 16.4553 157.216 16.3787 157.185 16.348C157.156 16.3174 157.124 16.2944 157.091 16.2829C157.057 16.2714 157.005 16.2656 156.932 16.2656H156.869V16.9151H156.553ZM156.869 16.0166H157.101C157.252 16.0166 157.346 16.0108 157.382 15.9974C157.421 15.984 157.449 15.9629 157.47 15.9323C157.491 15.9016 157.503 15.8614 157.503 15.8154C157.503 15.7637 157.49 15.7215 157.461 15.689C157.432 15.6564 157.394 15.6372 157.342 15.6276C157.317 15.6238 157.241 15.6219 157.112 15.6219H156.867V16.0185L156.869 16.0166Z" fill="white"></path>
  <defs>
    <linearGradient id="paint0_linear_583_3175" x1="0.00191579" y1="25" x2="20.8323" y2="25" gradientUnits="userSpaceOnUse">
      <stop stop-color="#0095DA"></stop>
      <stop offset="1" stop-color="#5D9ED5"></stop>
    </linearGradient>
    <linearGradient id="paint1_linear_583_3175" x1="20.8282" y1="-32.0618" x2="41.6605" y2="-32.0618" gradientUnits="userSpaceOnUse">
      <stop stop-color="#0095DA"></stop>
      <stop offset="1" stop-color="#5D9ED5"></stop>
    </linearGradient>
    <linearGradient id="paint2_linear_583_3175" x1="0.00191579" y1="15.3269" x2="20.8323" y2="15.3269" gradientUnits="userSpaceOnUse">
      <stop stop-color="#808285"></stop>
      <stop offset="1" stop-color="#58595B"></stop>
    </linearGradient>
    <linearGradient id="paint3_linear_583_3175" x1="20.8282" y1="-32.0619" x2="41.6605" y2="-32.0619" gradientUnits="userSpaceOnUse">
      <stop stop-color="#808285"></stop>
      <stop offset="1" stop-color="#58595B"></stop>
    </linearGradient>
  </defs>
</svg>
